PathFileType	4	(X/Y/Z)	3_coords_data.trc
DataRate	CameraRate	NumFrames	NumMarkers	Units	OrigDataRate	OrigDataStartFrame	OrigNumFrames
30.0	30.0	5	21	m	30.0	33	64
Frame#	Time	THUMB_TIP	THUMB_IP	THUMB_MCP	THUMB_CMC	INDEX_TIP	INDEX_DIP	INDEX_PIP	INDEX_MCP	MIDDLE_TIP	MIDDLE_DIP	MIDDLE_PIP	MIDDLE_MCP	RING_TIP	RING_DIP	RING_PIP	RING_MCP	PINKY_TIP	PINKY_DIP	PINKY_PIP	PINKY_MCP	WRIST
X1	Y1	Z1	X2	Y2	Z2	X3	Y3	Z3	X4	Y4	Z4	X5	Y5	Z5	X6	Y6	Z6	X7	Y7	Z7	X8	Y8	Z8	X9	Y9	Z9	X10	Y10	Z10	X11	Y11	Z11	X12	Y12	Z12	X13	Y13	Z13	X14	Y14	Z14	X15	Y15	Z15	X16	Y16	Z16	X17	Y17	Z17	X18	Y18	Z18	X19	Y19	Z19	X20	Y20	Z20	X21	Y21	Z21
32	1.0666666666666667	-0.15440499877929686	-0.07358879852294922	0.8997630004882813	-0.1609320068359375	-0.06379130172729493	0.9260440063476563	-0.16745799255371094	-0.0586864013671875	0.95681201171875	-0.16586900329589843	-0.03758100128173828	0.9876119995117187	-0.15250999450683594	-0.03748979949951172	0.9611799926757812	-0.13837699890136718	-0.03226839828491211	0.9478410034179687	-0.14264999389648436	-0.03008810043334961	0.924739990234375	-0.18285299682617187	-0.03687839889526367	0.9315490112304687	-0.15625100708007814	-0.024402599334716796	0.9706069946289062	-0.14308399963378907	-0.01665570068359375	0.9586900024414062	-0.14397300720214845	-0.009114919662475586	0.931406005859375	-0.18649200439453126	-0.01438759994506836	0.9324959716796875	-0.16334800720214843	-0.01241390037536621	0.9772239990234375	-0.15045100402832032	-0.0025638399124145506	0.967291015625	-0.14972099304199218	0.008674810409545899	0.9429970092773438	-0.1897169952392578	0.0046367101669311525	0.9425070190429687	-0.16640199279785156	-0.000469592988491058	0.9791939697265625	-0.15504200744628907	0.011001099586486816	0.9710419921875	-0.1584100036621094	0.022055200576782227	0.955385986328125	-0.19019500732421876	0.020681100845336912	0.954551025390625	-0.1883489990234375	-0.016930599212646485	1.0133099975585937
33	1.1	-0.1543630065917969	-0.07364769744873047	0.90002099609375	-0.16103700256347656	-0.06368000030517579	0.9262680053710938	-0.16658200073242188	-0.05891170120239258	0.9568280029296875	-0.16702699279785158	-0.037674598693847657	0.987510009765625	-0.15199699401855468	-0.037482799530029295	0.9618880004882813	-0.1385679931640625	-0.03231129837036133	0.947927001953125	-0.1423719940185547	-0.0301968994140625	0.9251129760742187	-0.18288299560546875	-0.036875400543212894	0.9315889892578125	-0.15666700744628906	-0.024185699462890627	0.9705180053710938	-0.14373500061035155	-0.01644459915161133	0.958343017578125	-0.1439600067138672	-0.009133999824523925	0.93139697265625	-0.18656100463867187	-0.01440250015258789	0.9324390258789063	-0.16372300720214844	-0.012223699569702148	0.977218994140625	-0.15076600646972657	-0.002453330039978027	0.9672670288085937	-0.14969200134277344	0.008700619697570801	0.9429219970703125	-0.18971000671386717	0.0046409001350402835	0.942510009765625	-0.1664720001220703	-0.00012510399520397102	0.97935400390625	-0.15468400573730468	0.01113759994506836	0.970916015625	-0.15822500610351561	0.022092199325561522	0.9553319702148437	-0.19024000549316405	0.020702999114990236	0.9545260009765625	-0.18896800231933594	-0.01723080062866211	1.0132999877929687
34	1.1333333333333333	-0.1545469970703125	-0.07374359893798828	0.9001370239257812	-0.16133900451660158	-0.06384629821777343	0.926218017578125	-0.16659100341796876	-0.05892729949951172	0.9568389892578125	-0.16945899963378908	-0.0378213005065918	0.9879819946289062	-0.15237600708007812	-0.0375098991394043	0.9616939697265625	-0.13854100036621095	-0.03233150100708008	0.9478480224609375	-0.14279200744628906	-0.030165199279785157	0.924656982421875	-0.18300399780273438	-0.03693360137939453	0.9316849975585938	-0.15616900634765624	-0.0246210994720459	0.97031201171875	-0.14314199829101562	-0.016500699996948243	0.9582890014648437	-0.14413499450683595	-0.00914387035369873	0.9311680297851562	-0.18663600158691407	-0.014478099822998048	0.9325750122070312	-0.16314500427246093	-0.012515600204467774	0.9771129760742188	-0.15071800231933594	-0.002451070070266723	0.9672960205078125	-0.14980599975585937	0.008700909614562989	0.9430029907226563	-0.18976199340820313	0.0046181797981262205	0.9426279907226562	-0.1673489990234375	-0.000358247011899948	0.9790189819335937	-0.15477000427246093	0.011033900260925293	0.9709580078125	-0.15822500610351561	0.02204789924621582	0.9553189697265625	-0.19020199584960937	0.020684600830078125	0.9546409912109375	-0.1891820068359375	-0.017135000228881835	1.01352001953125
35	1.1666666666666667	-0.1545540008544922	-0.07397689819335937	0.9002050170898438	-0.16161399841308594	-0.0639291000366211	0.9263209838867188	-0.1671959991455078	-0.05908209991455078	0.95702001953125	-0.16932400512695311	-0.0378744010925293	0.9879140014648438	-0.1520800018310547	-0.037419200897216794	0.9615579833984375	-0.13881300354003906	-0.03230120086669922	0.9474630126953125	-0.14295899963378905	-0.03015220069885254	0.9245130004882812	-0.18311399841308593	-0.036982200622558595	0.9316680297851563	-0.15571400451660156	-0.023834299087524415	0.9694010009765625	-0.14357699584960937	-0.01643120002746582	0.95806201171875	-0.14428500366210936	-0.00915767002105713	0.930968017578125	-0.18688900756835938	-0.014499899864196777	0.9325880126953126	-0.16352099609375	-0.012734600067138672	0.9772520141601563	-0.15063800048828124	-0.002447760105133056	0.967052978515625	-0.15002299499511718	0.008697210311889648	0.9426519775390625	-0.1899199981689453	0.004555220127105713	0.9426339721679687	-0.1673699951171875	-0.00047923201322555505	0.9789550170898438	-0.15485800170898437	0.010968400001525878	0.9707529907226562	-0.15860299682617188	0.022160600662231446	0.9551580200195312	-0.19034800720214845	0.020630699157714844	0.9546669921875	-0.18931500244140625	-0.017269699096679688	1.0135999755859375
36	1.2	-0.15499099731445312	-0.07426100158691407	0.9000770263671874	-0.16196600341796874	-0.06406340026855468	0.9263519897460938	-0.16716799926757814	-0.05917890167236328	0.9568870239257813	-0.17093499755859376	-0.03796369934082031	0.987927978515625	-0.15292300415039062	-0.03763550186157227	0.961406005859375	-0.13900599670410158	-0.03234460067749023	0.9473079833984375	-0.14314300537109376	-0.030232000350952148	0.9243350219726563	-0.1835570068359375	-0.03715129852294922	0.9317340087890625	-0.15491700744628906	-0.024324899673461915	0.96997900390625	-0.14302999877929687	-0.016595300674438478	0.9577479858398438	-0.14453199768066408	-0.009292249679565429	0.9304559936523438	-0.18713200378417968	-0.01464389991760254	0.9326389770507812	-0.16291000366210937	-0.012675900459289551	0.9768209838867188	-0.1503979949951172	-0.0025476400852203368	0.9666179809570312	-0.15011199951171875	0.00864801025390625	0.9422689819335938	-0.19019000244140624	0.004486020088195801	0.94264599609375	-0.16573899841308593	0.000151361003518104	0.979072021484375	-0.1548179931640625	0.010993800163269042	0.9703140258789062	-0.1584969940185547	0.021995800018310547	0.95475	-0.19053399658203124	0.020575599670410158	0.9546939697265625	-0.188947998046875	-0.01730690002441406	1.01327001953125
